<svg width="3205" height="2137" xmlns="http://www.w3.org/2000/svg" xmlns:xlink="http://www.w3.org/1999/xlink" overflow="hidden"><defs><clipPath id="clip0"><rect x="453" y="169" width="3205" height="2137"/></clipPath></defs><g clip-path="url(#clip0)" transform="translate(-453 -169)"><path d="M1423 169 1813 169 1813 2142.19 1813 2146.77 1813 2149.56 1425.42 2306 1423 2303.58 1423 1757.14 1423 1752.56Z" fill="#00B0F0" fill-rule="evenodd" fill-opacity="0.85098"/><rect x="1033" y="169" width="780" height="389" fill="#0070C0" fill-opacity="0.85098"/><path d="M453 1333 1004.06 1333 1423.34 1752.39 1423.34 1752.39 1813 2142.14 1813 2149.51 1425.77 2306 1423.34 2303.58 1423.34 2303.58Z" fill="#002060" fill-rule="evenodd" fill-opacity="0.85098"/><path d="M2784.37 451C2880.06 451 2957.63 528.519 2957.63 624.143L3379.63 624.143C3437.69 624.143 3484.75 671.174 3484.75 729.189L3484.75 1150.93C3580.43 1150.93 3658 1228.45 3658 1324.07 3658 1419.7 3580.43 1497.21 3484.75 1497.21L3484.75 1918.95C3484.75 1976.97 3437.69 2024 3379.63 2024L2957.63 2024 2957.63 2024C2957.63 1928.38 2880.06 1850.86 2784.37 1850.86 2688.69 1850.86 2611.12 1928.38 2611.12 2024L2611.12 2024 2189.11 2024C2131.06 2024 2084 1976.97 2084 1918.95L2084 1497.21C2179.69 1497.21 2257.25 1419.7 2257.25 1324.07 2257.25 1228.45 2179.69 1150.93 2084 1150.93L2084 729.189C2084 671.174 2131.06 624.143 2189.11 624.143L2611.12 624.143C2611.12 528.519 2688.69 451 2784.37 451Z" fill="#00B050" fill-rule="evenodd"/></g></svg>